# xmcd
# Copyright (C) 1995-1998 Ti Kan
#
# Track frame offsets:
#       150
#       64587
#       129018
#       193199
#
# Disc length: 3689 seconds
#
# Revision: 0
# Processed by: cddbd v1.5.2PL0 Copyright (c) Steve Scherf et al.
# Submitted via: CD-Transfer v1.0
#
DISCID=2e0e6704
DTITLE=Friday Night Life - 
DYEAR=1900
DGENRE=
TTITLE0=Mixed By Dj Maurice 5
TTITLE1=Mixed By Dj Maurice 6
TTITLE2=Mixed By Dj Maurice 7
TTITLE3=Mixed By Dj Maurice 8
EXTD=
EXTT0=
EXTT1=
EXTT2=
EXTT3=
PLAYORDER=
